<svg xmlns="http://www.w3.org/2000/svg" viewBox="0 0 210.36 184.87"><defs><style>.cls-1,.cls-3,.cls-4,.cls-5{fill:#201600;}.cls-2,.cls-3,.cls-4,.cls-5{isolation:isolate;}.cls-3,.cls-4,.cls-5{font-size:60px;font-family:Arial-BoldMT, Arial;font-weight:700;}.cls-3{letter-spacing:0.24em;}.cls-4{letter-spacing:0.3em;}.cls-5{letter-spacing:0.29em;}</style></defs><title>LOG</title><g id="Слой_2" data-name="Слой 2"><g id="Слой_1-2" data-name="Слой 1"><g id="OBJECTS"><path class="cls-1" d="M165.73,59.72a26.73,26.73,0,0,0-30.92-26.4A33.76,33.76,0,0,0,125,23.11a19.16,19.16,0,1,0-37.5,0A33.58,33.58,0,0,0,77.69,33.3,26.75,26.75,0,0,0,57.36,81,33.61,33.61,0,0,0,96.9,107.4a34,34,0,0,0,9.33-3.36,33.62,33.62,0,0,0,48.88-23A26.71,26.71,0,0,0,165.73,59.72ZM90.62,19.15a15.61,15.61,0,1,1,31.22,0,14.93,14.93,0,0,1-.13,2,33.55,33.55,0,0,0-31,0A16.83,16.83,0,0,1,90.62,19.15Zm30.2,5.56a15.61,15.61,0,0,1-29.17,0A30,30,0,0,1,120.82,24.71Zm-32.22,2a19.17,19.17,0,0,0,35.26,0,30.4,30.4,0,0,1,7.26,7.49A26.67,26.67,0,0,0,120,41a33.24,33.24,0,0,0-13.72,3.94A33.23,33.23,0,0,0,92.52,41a26.8,26.8,0,0,0-11.18-6.8,30.38,30.38,0,0,1,7.26-7.53ZM151.86,79a23.12,23.12,0,0,1-26.41-.46A33.6,33.6,0,0,0,139.84,51v-.78A30,30,0,0,1,152.2,74.48,29.68,29.68,0,0,1,151.86,79Zm-91.6-4.51A30,30,0,0,1,72.64,50.2V51A33.55,33.55,0,0,0,87,78.53,23.13,23.13,0,0,1,60.6,79,29.68,29.68,0,0,1,60.26,74.48Zm30.06-30h.59a23,23,0,0,1,4.94,9.15,33.39,33.39,0,0,0-7.31,20.89v.79A30,30,0,0,1,76.18,51a28.8,28.8,0,0,1,.16-3.09,29.66,29.66,0,0,1,14-3.47ZM77.1,43.59a29.94,29.94,0,0,1,2.37-6.28A22.91,22.91,0,0,1,87.19,41,33,33,0,0,0,77.1,43.59Zm38.72,15a29.69,29.69,0,0,1,4.53,14.9,23.16,23.16,0,0,1-4.56-13.79c0-.37,0-.73,0-1.09Zm-1.95-8.08a32.83,32.83,0,0,0-4.1-3.43,30.24,30.24,0,0,1,7-2.18,26.31,26.31,0,0,0-2.9,5.63Zm-1.12,4A26.75,26.75,0,0,0,119.46,78,30,30,0,0,1,93,78a26.71,26.71,0,0,0,6.7-23.45A30.17,30.17,0,0,1,106.23,49,29.7,29.7,0,0,1,112.75,54.51ZM96.67,59.72a23.16,23.16,0,0,1-4.56,13.79,29.92,29.92,0,0,1,4.53-14.9Q96.67,59.15,96.67,59.72Zm1.93-9.19a26.68,26.68,0,0,0-2.85-5.61,29.77,29.77,0,0,1,6.94,2.18A33.47,33.47,0,0,0,98.6,50.53Zm7.63,34.06a33.59,33.59,0,0,0,13.22-2.71A30.2,30.2,0,0,1,106.23,100,30.22,30.22,0,0,1,93,81.88,33.6,33.6,0,0,0,106.23,84.59ZM136.29,51a30,30,0,0,1-12.38,24.29v-.79a33.44,33.44,0,0,0-7.3-20.89,23.15,23.15,0,0,1,4.93-9.15h.6a29.82,29.82,0,0,1,14,3.46C136.23,48.9,136.29,50,136.29,51Zm-11-10A22.86,22.86,0,0,1,133,37.31a29.19,29.19,0,0,1,2.37,6.28,32.78,32.78,0,0,0-10.1-2.6Zm-75,18.69a23.21,23.21,0,0,1,23.19-23.2,15.36,15.36,0,0,1,2.36.12,33.35,33.35,0,0,0-2.79,9A33.58,33.58,0,0,0,56.71,74.48v1.27a23.14,23.14,0,0,1-6.42-16Zm40,44.82a30.13,30.13,0,0,1-28.6-20.81,26.7,26.7,0,0,0,27.52-2.42,33.73,33.73,0,0,0,13.45,20.56,30,30,0,0,1-12.34,2.71Zm31.83,0a30,30,0,0,1-12.38-2.67A33.7,33.7,0,0,0,123.2,81.27a26.68,26.68,0,0,0,27.51,2.42,30.12,30.12,0,0,1-28.56,20.85Zm17.27-58.87a33,33,0,0,0-2.8-9c.78-.07,1.57-.12,2.37-.12A23.18,23.18,0,0,1,155.7,75.74V74.47a33.57,33.57,0,0,0-16.28-28.8Z"/><g class="cls-2"><text class="cls-3" transform="translate(0 162.29)">L</text><text class="cls-4" transform="translate(44.16 162.29)">U</text><text class="cls-5" transform="translate(100.98 162.29)">X</text><text class="cls-4" transform="translate(152.34 162.29)">X</text></g></g></g></g></svg>