<svg xmlns="http://www.w3.org/2000/svg" viewBox="0 0 204.6 177.3"><defs><style>.cls-1,.cls-2{fill:#e5e5e6;}.cls-2{font-size:60px;font-family:Cardo-Bold, Cardo Bold;font-weight:700;letter-spacing:0.26em;}.cls-3{letter-spacing:0.3em;}.cls-4{letter-spacing:0.29em;}</style></defs><title>logo_2</title><g id="Слой_2" data-name="Слой 2"><g id="OBJECTS"><path class="cls-1" d="M165.73,59.73A26.78,26.78,0,0,0,139,33a27.44,27.44,0,0,0-4.19.33A33.85,33.85,0,0,0,125,23.12a19.16,19.16,0,1,0-37.5,0,33.7,33.7,0,0,0-9.81,10.19A27.65,27.65,0,0,0,73.48,33,26.74,26.74,0,0,0,57.36,81.05a33.6,33.6,0,0,0,48.87,23,33.61,33.61,0,0,0,48.88-23A26.72,26.72,0,0,0,165.73,59.73ZM90.62,19.16a15.61,15.61,0,0,1,31.22,0,14.86,14.86,0,0,1-.13,2,33.59,33.59,0,0,0-31,0A16.68,16.68,0,0,1,90.62,19.16Zm30.2,5.56a15.61,15.61,0,0,1-29.17,0,30,30,0,0,1,29.17,0Zm-32.22,2a19.16,19.16,0,0,0,35.26,0,30.4,30.4,0,0,1,7.26,7.49A26.82,26.82,0,0,0,120,41a33.36,33.36,0,0,0-13.72,3.94A33.36,33.36,0,0,0,92.52,41a26.85,26.85,0,0,0-11.18-6.8A30.4,30.4,0,0,1,88.6,26.67ZM151.86,79a23.1,23.1,0,0,1-26.41-.46A33.59,33.59,0,0,0,139.84,51c0-.26,0-.52,0-.78A30,30,0,0,1,152.2,74.49,30.39,30.39,0,0,1,151.86,79Zm-91.6-4.51A30,30,0,0,1,72.64,50.21c0,.26,0,.52,0,.78A33.56,33.56,0,0,0,87,78.54,23.12,23.12,0,0,1,60.6,79,30.39,30.39,0,0,1,60.26,74.49Zm30.06-30h.59a23.07,23.07,0,0,1,4.94,9.15,33.43,33.43,0,0,0-7.31,20.89c0,.27,0,.53,0,.79A30,30,0,0,1,76.18,51a28.67,28.67,0,0,1,.16-3.09A29.8,29.8,0,0,1,90.32,44.44ZM77.1,43.6a30.21,30.21,0,0,1,2.37-6.28A23.12,23.12,0,0,1,87.19,41,33.14,33.14,0,0,0,77.1,43.6Zm38.72,15a29.77,29.77,0,0,1,4.53,14.9,23.09,23.09,0,0,1-4.56-13.79Q115.79,59.16,115.82,58.62Zm-1.95-8.08a33.71,33.71,0,0,0-4.1-3.43,30.23,30.23,0,0,1,7-2.18A26.67,26.67,0,0,0,113.87,50.54Zm-1.12,4a27.07,27.07,0,0,0-.51,5.21A26.6,26.6,0,0,0,119.46,78,30,30,0,0,1,93,78a26.64,26.64,0,0,0,7.21-18.24,26.3,26.3,0,0,0-.51-5.21A30.45,30.45,0,0,1,106.23,49,30,30,0,0,1,112.75,54.52ZM96.67,59.73a23.09,23.09,0,0,1-4.56,13.79,29.87,29.87,0,0,1,4.53-14.9Q96.67,59.16,96.67,59.73Zm1.93-9.19a26.67,26.67,0,0,0-2.85-5.61,30.15,30.15,0,0,1,6.94,2.18A34.39,34.39,0,0,0,98.6,50.54Zm7.63,34.06a33.49,33.49,0,0,0,13.22-2.71A30.19,30.19,0,0,1,106.23,100,30.19,30.19,0,0,1,93,81.89,33.49,33.49,0,0,0,106.23,84.6ZM136.29,51a30,30,0,0,1-12.38,24.29c0-.26,0-.52,0-.79a33.43,33.43,0,0,0-7.3-20.89,23.18,23.18,0,0,1,4.93-9.15h.6a29.83,29.83,0,0,1,14,3.46C136.23,48.91,136.29,50,136.29,51Zm-11-10A23.12,23.12,0,0,1,133,37.32a29.12,29.12,0,0,1,2.37,6.28A33.06,33.06,0,0,0,125.27,41Zm-75,18.69a23.22,23.22,0,0,1,23.19-23.2c.8,0,1.59,0,2.36.12a33.63,33.63,0,0,0-2.79,9A33.6,33.6,0,0,0,56.71,74.49c0,.43,0,.85,0,1.27A23.13,23.13,0,0,1,50.29,59.73Zm40,44.82a30.11,30.11,0,0,1-28.6-20.81,26.69,26.69,0,0,0,27.52-2.42,33.69,33.69,0,0,0,13.45,20.56A29.88,29.88,0,0,1,90.32,104.55Zm31.83,0a30,30,0,0,1-12.38-2.67,33.66,33.66,0,0,0,13.46-20.56,26.67,26.67,0,0,0,27.51,2.42A30.11,30.11,0,0,1,122.15,104.55Zm17.27-58.87a33.29,33.29,0,0,0-2.8-9c.78-.07,1.57-.12,2.37-.12a23.18,23.18,0,0,1,16.74,39.23c0-.42,0-.84,0-1.27A33.59,33.59,0,0,0,139.42,45.68Z"/><text class="cls-2" transform="translate(0 162.3)">L<tspan class="cls-3" x="44.16" y="0">U</tspan><tspan class="cls-4" x="100.98" y="0">X</tspan><tspan class="cls-3" x="152.34" y="0">X</tspan></text></g></g></svg>