<svg xmlns="http://www.w3.org/2000/svg" viewBox="0 0 97.07 117.86"><defs><style>.cls-1{fill:#b5985e;}.cls-2{font-size:27.22px;fill:#6b5143;font-family:Cardo-Bold, Cardo Bold;font-weight:700;letter-spacing:0.26em;}.cls-3{letter-spacing:0.3em;}.cls-4{letter-spacing:0.28em;}</style></defs><title>logo</title><g id="Слой_2" data-name="Слой 2"><g id="OBJECTS"><path class="cls-1" d="M97.07,40.61A18.2,18.2,0,0,0,78.89,22.42a17.65,17.65,0,0,0-2.84.23,23,23,0,0,0-6.68-6.93A13.27,13.27,0,0,0,69.65,13,13,13,0,1,0,43.6,13a12.59,12.59,0,0,0,.28,2.69,22.88,22.88,0,0,0-6.68,6.93,17.84,17.84,0,0,0-2.84-.23,18.18,18.18,0,0,0-11,32.68A22.86,22.86,0,0,0,56.62,70.77,22.86,22.86,0,0,0,89.85,55.1,18.13,18.13,0,0,0,97.07,40.61ZM46,13a10.62,10.62,0,1,1,21.23,0,10.13,10.13,0,0,1-.09,1.36,22.84,22.84,0,0,0-21.05,0A10.13,10.13,0,0,1,46,13Zm20.53,3.78a10.61,10.61,0,0,1-19.83,0,20.41,20.41,0,0,1,19.83,0Zm-21.9,1.32a13,13,0,0,0,24,0,20.6,20.6,0,0,1,4.93,5.1A18.16,18.16,0,0,0,66,27.85a22.67,22.67,0,0,0-9.33,2.68,22.67,22.67,0,0,0-9.32-2.68,18.13,18.13,0,0,0-7.6-4.62A20.64,20.64,0,0,1,44.64,18.13Zm43,35.58a15.74,15.74,0,0,1-18-.31,22.83,22.83,0,0,0,9.78-18.73c0-.18,0-.36,0-.53a20.39,20.39,0,0,1,8.42,16.51A20.6,20.6,0,0,1,87.65,53.71ZM25.37,50.65a20.41,20.41,0,0,1,8.41-16.51v.53A22.83,22.83,0,0,0,43.56,53.4a15.74,15.74,0,0,1-18,.31A20.6,20.6,0,0,1,25.37,50.65ZM45.8,30.21h.41a15.8,15.8,0,0,1,3.35,6.22,22.77,22.77,0,0,0-5,14.21v.53a20.44,20.44,0,0,1-8.41-16.51c0-.71,0-1.41.11-2.11A20.39,20.39,0,0,1,45.8,30.21Zm-9-.57a20.51,20.51,0,0,1,1.61-4.27,15.78,15.78,0,0,1,5.25,2.53A22.48,22.48,0,0,0,36.82,29.64ZM63.14,39.85A20.19,20.19,0,0,1,66.22,50a15.69,15.69,0,0,1-3.09-9.37C63.13,40.35,63.13,40.1,63.14,39.85Zm-1.33-5.49A22.14,22.14,0,0,0,59,32a20,20,0,0,1,4.72-1.48A18.22,18.22,0,0,0,61.81,34.36Zm-.75,2.71A18.13,18.13,0,0,0,65.61,53a20.38,20.38,0,0,1-18,0,18.11,18.11,0,0,0,4.56-15.94,20.69,20.69,0,0,1,4.43-3.75A20.74,20.74,0,0,1,61.06,37.07ZM50.12,40.61A15.63,15.63,0,0,1,47,50,20.39,20.39,0,0,1,50.1,39.85C50.12,40.1,50.12,40.35,50.12,40.61Zm1.31-6.25a18.18,18.18,0,0,0-1.93-3.81A20,20,0,0,1,54.22,32,23,23,0,0,0,51.43,34.36Zm5.19,23.16a22.65,22.65,0,0,0,9-1.85,20.49,20.49,0,0,1-9,12.3,20.51,20.51,0,0,1-9-12.3A22.61,22.61,0,0,0,56.62,57.52ZM77.06,34.67a20.42,20.42,0,0,1-8.42,16.51c0-.18,0-.36,0-.53a22.72,22.72,0,0,0-5-14.21A15.82,15.82,0,0,1,67,30.22h.4A20.44,20.44,0,0,1,77,32.56C77,33.26,77.06,34,77.06,34.67ZM69.57,27.9a15.78,15.78,0,0,1,5.25-2.53,20.51,20.51,0,0,1,1.61,4.27A22.55,22.55,0,0,0,69.57,27.9Zm-51,12.71A15.78,15.78,0,0,1,34.36,24.84c.54,0,1.07,0,1.6.08a23,23,0,0,0-1.9,6.13A22.86,22.86,0,0,0,23,50.65c0,.28,0,.57,0,.86A15.75,15.75,0,0,1,18.59,40.61ZM45.8,71.08A20.48,20.48,0,0,1,26.36,56.93a18.14,18.14,0,0,0,18.71-1.64,22.91,22.91,0,0,0,9.15,14A20.42,20.42,0,0,1,45.8,71.08Zm21.64,0A20.41,20.41,0,0,1,59,69.27a23,23,0,0,0,9.15-14,18.14,18.14,0,0,0,18.71,1.64A20.48,20.48,0,0,1,67.44,71.08Zm11.74-40a22.31,22.31,0,0,0-1.9-6.13c.53-.05,1.07-.08,1.61-.08A15.76,15.76,0,0,1,90.27,51.51c0-.29,0-.58,0-.86A22.87,22.87,0,0,0,79.18,31.05Z"/><text class="cls-2" transform="translate(0 111.05)">L<tspan class="cls-3" x="20.04" y="0">U</tspan><tspan class="cls-4" x="45.82" y="0">X</tspan><tspan class="cls-3" x="69.12" y="0">X</tspan></text></g></g></svg>